#!OML:ASF H:\ManfredETheater\Project 1\Capture day 1\Session 1\subject.ASF
:FULLY-SPECIFIED
:DEGREES
142
root -1.50322 21.3777 10.2789 6.9555 7.99287 -0.234864
lowerback 14.5831 -0.49966 -2.2732
upperback -0.386314 -1.07417 -0.252769
thorax -8.58208 -0.422552 1.24931
lowerneck -18.9555 -2.93015 -3.0468
upperneck 13.02 -3.71454 3.22184
head 7.21093 -1.62948 1.11822
rclavicle -2.98177e-015 -4.37326e-015
rhumerus -59.5355 6.99423 -95.2409
rradius 84.9785
rwrist -2.19892
rhand -20.4236 8.9354
rfingers 7.12502
rthumb 5.93091 -20.9616
lclavicle -2.98177e-015 -4.37326e-015
lhumerus -47.0051 -17.5707 102.075
lradius 112.618
lwrist 14.3622
lhand -18.0259 -17.9347
lfingers 7.12502
lthumb 8.2453 11.8844
rfemur -32.0726 -13.4144 21.2832
rtibia 89.2383
rfoot -3.5184 -9.27139
rtoes -18.4772
lfemur -31.3383 -0.112366 -22.6433
ltibia 55.1413
lfoot -21.4247 -13.747
ltoes 14.5138
143
root -1.5228 21.2816 10.6942 7.37402 8.28828 0.864957
lowerback 14.7078 -0.746361 -3.34991
upperback -0.502383 -1.62286 -0.572857
thorax -8.74073 -0.642463 1.63722
lowerneck -19.0097 -2.80229 -2.86455
upperneck 12.9328 -3.60546 3.33256
head 7.1869 -1.55737 1.13776
rclavicle -2.5345e-014 3.97569e-016
rhumerus -59.806 5.67876 -93.9452
rradius 81.7324
rwrist -2.60477
rhand -20.7906 8.00063
rfingers 7.12502
rthumb 5.57649 -21.906
lclavicle -2.5345e-014 3.97569e-016
lhumerus -44.5375 -18.4678 101.658
lradius 113.207
lwrist 14.7143
lhand -18.2376 -17.8269
lfingers 7.12502
lthumb 8.04101 12.0001
rfemur -35.6298 -14.2786 20.3457
rtibia 91.4599
rfoot -5.01801 -9.83717
rtoes -18.1663
lfemur -30.0442 -0.295886 -23.6059
ltibia 55.3662
lfoot -23.3995 -13.7084
ltoes 14.9947
144
root -1.54352 21.1823 11.1107 7.8173 8.59165 1.9025
lowerback 14.7925 -0.990276 -4.37533
upperback -0.616701 -2.15868 -0.85534
thorax -8.86285 -0.855689 2.03252
lowerneck -19.0446 -2.69535 -2.71733
upperneck 12.8377 -3.51718 3.45235
head 7.15865 -1.49652 1.16359
rclavicle 2.78299e-015 -3.06128e-014
rhumerus -60.0782 4.40864 -92.5207
rradius 78.5446
rwrist -3.28645
rhand -21.009 6.97324
rfingers 7.12502
rthumb 5.36562 -22.9388
lclavicle 2.78299e-015 -3.06128e-014
lhumerus -42.0606 -19.3317 101.141
lradius 113.917
lwrist 14.9348
lhand -18.4353 -17.7645
lfingers 7.12502
lthumb 7.85018 12.0697
rfemur -39.2151 -15.0219 19.5731
rtibia 93.2097
rfoot -6.3022 -10.2578
rtoes -17.9773
lfemur -28.7987 -0.518925 -24.4266
ltibia 55.6168
lfoot -25.2037 -13.7423
ltoes 15.0619
145
root -1.5648 21.0836 11.5306 8.25406 8.89471 2.83654
lowerback 14.8498 -1.22762 -5.30986
upperback -0.723207 -2.66713 -1.08983
thorax -8.95185 -1.05765 2.42011
lowerneck -19.0743 -2.61374 -2.61208
upperneck 12.755 -3.45381 3.58034
head 7.13539 -1.44902 1.19591
rclavicle -8.44835e-015 9.14409e-015
rhumerus -60.3979 3.20906 -90.9958
rradius 75.5016
rwrist -4.13734
rhand -21.1304 6.0452
rfingers 7.12502
rthumb 5.24841 -23.8698
lclavicle -8.44835e-015 9.14409e-015
lhumerus -39.5905 -20.1235 100.542
lradius 114.742
lwrist 14.952
lhand -18.6357 -17.7401
lfingers 7.12502
lthumb 7.6568 12.1013
rfemur -42.734 -15.6123 18.9884
rtibia 94.4311
rfoot -7.32489 -10.5554
rtoes -17.943
lfemur -27.5463 -0.775045 -25.0653
ltibia 55.8453
lfoot -26.8394 -13.916
ltoes 14.8194
146
root -1.58604 20.989 11.9564 8.66999 9.18685 3.64941
lowerback 14.8678 -1.45539 -6.13545
upperback -0.81883 -3.13816 -1.27527
thorax -9.00114 -1.24555 2.78778
lowerneck -19.1049 -2.55596 -2.54191
upperneck 12.6981 -3.41435 3.71005
head 7.1221 -1.41444 1.23157
rclavicle 3.48867e-014 2.90226e-014
rhumerus -60.8208 2.11062 -89.4109
rradius 72.6997
rwrist -4.96756
rhand -21.1967 5.31418
rfingers 7.12502
rthumb 5.18441 -24.6024
lclavicle 3.48867e-014 2.90226e-014
lhumerus -37.1538 -20.8108 99.8794
lradius 115.677
lwrist 14.7687
lhand -18.8496 -17.7373
lfingers 7.12502
lthumb 7.45033 12.1115
rfemur -46.1054 -16.032 18.5819
rtibia 95.085
rfoot -8.09081 -10.7517
rtoes -18.1148
lfemur -26.2305 -1.05711 -25.5151
ltibia 55.9922
lfoot -28.3047 -14.2581
ltoes 14.4939
147
root -1.60728 20.9009 12.3898 9.0538 9.47201 4.34322
lowerback 14.8511 -1.6744 -6.85427
upperback -0.904421 -3.57202 -1.41335
thorax -9.01637 -1.42012 3.1348
lowerneck -19.1526 -2.51896 -2.49753
upperneck 12.6875 -3.39524 3.8276
head 7.1277 -1.39148 1.26484
rclavicle 4.06515e-014 2.78299e-015
rhumerus -61.3983 1.15482 -87.8119
rradius 70.2396
rwrist -5.61111
rhand -21.2369 4.8266
rfingers 7.12502
rthumb 5.14558 -25.0909
lclavicle 4.06515e-014 2.78299e-015
lhumerus -34.7823 -21.3656 99.1808
lradius 116.714
lwrist 14.4424
lhand -19.095 -17.7569
lfingers 7.12502
lthumb 7.21346 12.1001
rfemur -49.2515 -16.29 18.3256
rtibia 95.1562
rfoot -8.63912 -10.875
rtoes -18.393
lfemur -24.8105 -1.35153 -25.7915
ltibia 56.007
lfoot -29.6015 -14.7521
ltoes 14.1294
148
root -1.62767 20.8197 12.8321 9.40302 9.71417 4.93335
lowerback 14.7892 -1.87402 -7.47841
upperback -0.981863 -3.95554 -1.51338
thorax -8.99715 -1.57542 3.45452
lowerneck -19.2218 -2.49617 -2.47883
upperneck 12.727 -3.38727 3.92994
head 7.15378 -1.37583 1.29581
rclavicle 1.3418e-014 -1.70955e-014
rhumerus -62.1702 0.390539 -86.2585
rradius 68.208
rwrist -5.95705
rhand -21.3168 4.60009
rfingers 7.12502
rthumb 5.06844 -25.3193
lclavicle 1.3418e-014 -1.70955e-014
lhumerus -32.5175 -21.7763 98.4749
lradius 117.849
lwrist 14.0547
lhand -19.3942 -17.7733
lfingers 7.12502
lthumb 6.92464 12.0935
rfemur -52.1243 -16.3803 18.1707
rtibia 94.6576
rfoot -9.0119 -10.9492
rtoes -18.7948
lfemur -23.2541 -1.61127 -25.9355
ltibia 55.8477
lfoot -30.7076 -15.3531
ltoes 13.8263
149
root -1.64698 20.7449 13.2835 9.72631 9.89747 5.4335
lowerback 14.6708 -2.05267 -8.02065
upperback -1.0562 -4.28726 -1.57803
thorax -8.94438 -1.71066 3.75032
lowerneck -19.317 -2.48165 -2.47587
upperneck 12.8178 -3.38077 3.99224
head 7.2005 -1.36462 1.31587
rclavicle -3.05134e-014 -1.59028e-014
rhumerus -63.1508 -0.134028 -84.8027
rradius 66.6692
rwrist -6.01678
rhand -21.4458 4.68963
rfingers 7.12502
rthumb 4.94392 -25.2327
lclavicle -3.05134e-014 -1.59028e-014
lhumerus -30.4006 -22.0292 97.7881
lradius 119.084
lwrist 13.7124
lhand -19.7201 -17.7838
lfingers 7.12502
lthumb 6.61002 12.0931
rfemur -54.7026 -16.3139 18.0861
rtibia 93.616
rfoot -9.24867 -11.0042
rtoes -19.2659
lfemur -21.5612 -1.80751 -25.9798
ltibia 55.4904
lfoot -31.6194 -16.0236
ltoes 13.5886
